# xmcd CD database file
#
# Track frame offsets:
#	150
#	15236
#	31152
#	49001
#	64468
#	77906
#	98156
#	120735
#	142483
#	166852
#	186248
#	204274
#	220179
#	235198
#	250847
#
# Disc length: 3545 seconds
#
# Revision: 11
# Processed by: cddbd v1.5.2PL0 Copyright (c) Steve Scherf et al.
# Submitted via: CDex 1.51
#
DISCID=ce0dd70f
DTITLE=Kenny Chesney - Greatest Hits II
DYEAR=2009
DGENRE=Country
TTITLE0=Kenny Chesney - Out Last Night
TTITLE1=Kenny Chesney - Living In Fast Forward
TTITLE2=Kenny Chesney - Young
TTITLE3=Kenny Chesney - Summertime
TTITLE4=Kenny Chesney with Mac McAnally - Down The Road
TTITLE5=Kenny Chesney - Beer In Mexico
TTITLE6=Kenny Chesney - There Goes My Life
TTITLE7=Kenny Chesney with Uncle Kracker - When The Sun Goes Down
TTITLE8=Kenny Chesney - Anything But Mine
TTITLE9=Kenny Chesney - Be As You Are
TTITLE10=Kenny Chesney - I Go Back
TTITLE11=Kenny Chesney - No Shoes, No Shirt, No Problems
TTITLE12=Kenny Chesney - The Good Stuff
TTITLE13=Kenny Chesney - Never Wanted Nothing More
TTITLE14=Kenny Chesney with Dave Matthews - I'm Alive
EXTD=YEAR: 2009
EXTT0=
EXTT1=
EXTT2=
EXTT3=
EXTT4=
EXTT5=
EXTT6=
EXTT7=
EXTT8=
EXTT9=
EXTT10=
EXTT11=
EXTT12=
EXTT13=
EXTT14=
PLAYORDER=
